Coordinates
version=1
nRows=29
nColumns=24
inDegrees=yes

Units are S.I. units (second, meters, Newtons, ...)
Angles are in degrees.

endheader
time	pelvis_tilt	pelvis_list	pelvis_rotation	pelvis_tx	pelvis_ty	pelvis_tz	hip_flexion_r	hip_adduction_r	hip_rotation_r	knee_angle_r	ankle_angle_r	subtalar_angle_r	mtp_angle_r	hip_flexion_l	hip_adduction_l	hip_rotation_l	knee_angle_l	ankle_angle_l	subtalar_angle_l	mtp_angle_l	lumbar_extension	lumbar_bending	lumbar_rotation
      1.06300000	      3.77696849	      0.80503965	     -5.63492614	     -0.14728417	      0.89573377	      0.38157675	    -23.21819654	      2.61409156	     -2.00585297	     -5.24018332	     20.74379181	     17.03510749	      6.83593878	     20.06016900	      0.50359792	    -14.86308602	     -3.88007650	      2.35617092	     -1.38799203	      0.58023254	    -11.54897796	     -1.50511268	     12.25197207
      1.06716667	      3.70306253	      0.87329042	     -5.76539993	     -0.14166483	      0.89463583	      0.38162529	    -23.24875651	      2.43215626	     -2.03268944	     -5.79293461	     20.91371814	     17.27250032	      7.02104396	     20.20934931	      0.57935592	    -14.67368575	     -4.26439062	      2.23219692	     -1.56925362	      0.60758135	    -11.45824609	     -1.67773868	     12.32356646
      1.07133333	      3.63494808	      0.95409987	     -5.88592665	     -0.13600867	      0.89360403	      0.38166193	    -23.27085225	      2.23836879	     -2.08244166	     -6.37412374	     21.04584897	     17.52646159	      7.23907994	     20.35105779	      0.67102387	    -14.46842380	     -4.71842519	      2.05439068	     -1.82292105	      0.65742902	    -11.37095181	     -1.86698035	     12.38205660
      1.07550000	      3.60629088	      1.05827382	     -5.98438182	     -0.13028631	      0.89268539	      0.38165161	    -23.34668333	      2.02086947	     -2.18175796	     -6.92072767	     20.99554092	     17.74360797	     10.68915337	     20.43193513	      0.80679459	    -14.22122628	     -5.18620200	      1.74132056	     -2.21681370	      1.74765611	    -11.32199317	     -2.08556614	     12.35446942
      1.07966667	      3.54620730	      1.14579411	     -6.09236048	     -0.12460195	      0.89177945	      0.38168305	    -23.35141561	      1.82613876	     -2.17654308	     -7.55434161	     21.06503707	     17.89631975	     10.74181279	     20.59099995	      0.89938274	    -14.03634435	     -5.82274498	      1.57221753	     -2.48871233	      1.77254581	    -11.24767434	     -2.28389830	     12.43099618
      1.08383333	      3.49186330	      1.26127013	     -6.18204254	     -0.11884986	      0.89094911	      0.38165602	    -23.34816080	      1.60028868	     -2.24880381	     -8.21231491	     21.06000400	     18.11601756	     10.84313828	     20.72342977	      1.04045740	    -13.80692283	     -6.45328670	      1.27683059	     -2.91120088	      1.82181140	    -11.15770849	     -2.51833614	     12.44390789
      1.08800000	      3.45682349	      1.38465995	     -6.25789929	     -0.11305852	      0.89020707	      0.38161448	    -23.35616863	      1.36931777	     -2.32579213	     -8.89023516	     21.00580302	     18.31628059	     11.00140269	     20.83544052	      1.19758140	    -13.55405102	     -7.13168029	      0.96267546	     -3.40604852	      1.89953885	    -11.09330271	     -2.76168342	     12.42942642
      1.09216667	      3.43060742	      1.51806959	     -6.32024741	     -0.10722611	      0.88954949	      0.38154608	    -23.36435693	      1.13128612	     -2.39869838	     -9.58426394	     20.87624380	     18.47369110	     11.20354644	     20.93973198	      1.37180218	    -13.30426294	     -7.84986720	      0.63636762	     -3.92435788	      1.99379185	    -11.03374621	     -3.01770422	     12.39618748
      1.09633333	      3.40700596	      1.65501904	     -6.36739126	     -0.10136439	      0.88896584	      0.38144785	    -23.35699486	      0.89286898	     -2.47854041	    -10.31326367	     20.69983703	     18.62194351	     11.47761504	     21.04239275	      1.55763236	    -13.03783015	     -8.60116165	      0.29468934	     -4.50210713	      2.11541322	    -10.97519832	     -3.27619069	     12.34106827
      1.10050000	      3.42041588	      1.79141254	     -6.37693442	     -0.09548561	      0.88849617	      0.38127622	    -23.37353700	      0.66255887	     -2.60684272	    -11.07817208	     20.51725007	     18.78008531	     12.02139862	     21.10489883	      1.76747954	    -12.71276592	     -9.36953510	     -0.10391486	     -5.17515373	      2.34216698	    -10.97946694	     -3.51438236	     12.26515052
      1.10466667	      3.38537061	      1.94674938	     -6.41715693	     -0.08950298	      0.88805780	      0.38117559	    -23.32991466	      0.41056308	     -2.63312103	    -11.84459472	     20.11955956	     18.82154879	     12.35757159	     21.22522587	      1.96499606	    -12.52941012	    -10.19946380	     -0.34401133	     -5.64659450	      2.47225203	    -10.86937742	     -3.81958663	     12.18754486
      1.10883333	      3.44529862	      2.08714407	     -6.40993423	     -0.08354035	      0.88780747	      0.38097193	    -23.36635484	      0.17410889	     -2.75892428	    -12.64650312	     19.64323900	     18.83538473	     18.22538034	     21.23918568	      2.18456810	    -12.26270373	    -11.02610188	     -0.67010557	     -6.28429049	      4.56504786	    -10.92460035	     -4.06809293	     12.12913961
      1.11300000	      3.42032583	      2.23680068	     -6.40601524	     -0.07751639	      0.88752804	      0.38078687	    -23.27894772	     -0.06053836	     -2.81441456	    -13.51933782	     19.18991931	     18.84375416	     18.27781588	     21.35680163	      2.39038327	    -12.06775588	    -11.91002338	     -0.89510045	     -6.74813457	      4.57608075	    -10.83442174	     -4.35036691	     11.99900806
      1.11716667	      3.46516045	      2.40116887	     -6.38228040	     -0.07148372	      0.88741927	      0.38052178	    -23.22446073	     -0.32291774	     -2.95795112	    -14.47605954	     18.74470451	     18.92488913	     18.60920741	     21.35700373	      2.65589248	    -11.73310231	    -12.70506506	     -1.17102512	     -7.46695492	      4.62812189	    -10.85307160	     -4.62916781	     11.82751183
      1.12133333	      3.44722141	      2.52602525	     -6.32935475	     -0.06545394	      0.88728713	      0.38023168	    -23.07766062	     -0.52183769	     -3.05075011	    -15.47643068	     18.20444392	     18.91802936	     18.85772040	     21.47175794	      2.85736780	    -11.47286734	    -13.62894409	     -1.31427199	     -7.95793940	      4.65743162	    -10.79416774	     -4.84895944	     11.69889885
      1.12550000	      3.52624351	      2.67358282	     -6.27679610	     -0.05935251	      0.88737924	      0.37990508	    -23.02102978	     -0.76644806	     -3.19705032	    -16.48262887	     17.49694743	     18.95836533	     22.60291087	     21.43325014	      3.11379183	    -11.16379367	    -14.47053667	     -1.38314703	     -8.56463075	      4.98880789	    -10.85487352	     -5.11674661	     11.59664327
      1.12966667	      3.51136230	      2.82467669	     -6.22401469	     -0.05321302	      0.88742523	      0.37961011	    -22.81482344	     -0.99875906	     -3.27638218	    -17.58183366	     16.77611745	     18.89438395	     22.66435821	     21.50484651	      3.33978292	    -10.96590879	    -15.34554231	     -1.43330849	     -8.90747728	      4.99005536	    -10.75966501	     -5.39589016	     11.43644472
      1.13383333	      3.52866411	      2.95297538	     -6.14378111	     -0.04713198	      0.88756703	      0.37919459	    -22.57822599	     -1.21908992	     -3.43094958	    -18.80566489	     16.09118395	     18.91197822	     22.85175033	     21.52376803	      3.57954546	    -10.64159962	    -16.18444065	     -1.45604933	     -9.42555585	      4.98679824	    -10.74331407	     -5.59103006	     11.22294017
      1.13800000	      3.56394012	      3.09342508	     -6.06140247	     -0.04100408	      0.88780996	      0.37876886	    -22.33189481	     -1.46032933	     -3.59218764	    -20.06927618	     15.29885845	     18.93677758	     23.12733140	     21.50008841	      3.83395438	    -10.34063580	    -16.99002450	     -1.40272413	     -9.87780237	      4.97645336	    -10.73843595	     -5.82374130	     11.03806685
      1.14216667	      3.63682637	      3.24874211	     -5.97927379	     -0.03484254	      0.88817163	      0.37833117	    -22.09218569	     -1.72879312	     -3.77320028	    -21.36980349	     14.36606491	     18.90076505	     27.50832674	     21.40737661	      4.11316907	    -10.04894081	    -17.75105998	     -1.27757351	    -10.30448973	      4.69627677	    -10.77593365	     -6.09860661	     10.88927278
      1.14633333	      3.68276744	      3.37147429	     -5.89285932	     -0.02871917	      0.88855389	      0.37785835	    -21.76498977	     -1.96727324	     -3.93150196	    -22.77631986	     13.45160530	     18.90531455	     27.55954677	     21.34286819	      4.34669080	     -9.80083173	    -18.52300835	     -1.09515973	    -10.58822875	      4.69081338	    -10.78581932	     -6.29400073	     10.70562220
      1.15050000	      3.74308921	      3.51063237	     -5.80315017	     -0.02260445	      0.88899912	      0.37736569	    -21.40146292	     -2.23429362	     -4.11476467	    -24.26457858	     12.51886571	     18.92369764	     27.71977580	     21.23291474	      4.60965660	     -9.52834047	    -19.23328858	     -0.88534630	    -10.93730618	      4.66673616	    -10.81736438	     -6.52934440	     10.49369521
      1.15466667	      3.80718940	      3.63562570	     -5.70852213	     -0.01649596	      0.88951002	      0.37683848	    -21.00027324	     -2.49701347	     -4.30813174	    -25.80785215	     11.48104949	     18.92634441	     27.85975633	     21.08857121	      4.86014245	     -9.26343064	    -19.89023081	     -0.61756453	    -11.15459655	      4.64620715	    -10.84600489	     -6.71663240	     10.33761187
      1.15883333	      3.88499625	      3.78463678	     -5.63550730	     -0.01042044	      0.89007065	      0.37629927	    -20.54977403	     -2.80946548	     -4.49750969	    -27.44859713	     10.47174615	     18.94984150	     28.33704367	     20.89489558	      5.14429348	     -8.99186565	    -20.47205622	     -0.32330803	    -11.49010333	      4.55837469	    -10.89787911	     -6.95074221	     10.07762162
      1.16300000	      4.01885955	      3.90422066	     -5.53858450	     -0.00434737	      0.89074973	      0.37575389	    -20.15384324	     -3.08677530	     -4.70094933	    -29.07105695	      9.30331803	     18.84457753	     28.37981252	     20.63684430	      5.38395493	     -8.82745439	    -21.06584070	      0.02942388	    -11.57180582	      4.55489811	    -11.02590937	     -7.14757317	     10.01788106
      1.16716667	      4.06629489	      4.02994326	     -5.44681041	      0.00166131	      0.89134518	      0.37518883	    -19.59124131	     -3.38000289	     -4.88565606	    -30.80079502	      8.11077597	     18.83784259	     28.47816388	     20.43456799	      5.63574986	     -8.57989622	    -21.57029795	      0.38510180	    -11.66287686	      4.53932565	    -11.05103734	     -7.36181517	      9.85394894
      1.17133333	      4.18997230	      4.15195152	     -5.36585395	      0.00763501	      0.89204413	      0.37460535	    -19.07530922	     -3.69662674	     -5.11205298	    -32.57159965	      6.92260778	     18.73329755	     28.53126872	     20.13303550	      5.87841731	     -8.43760255	    -22.04680645	      0.78821048	    -11.76989397	      4.53173029	    -11.16704556	     -7.53784757	      9.72232412
      1.17550000	      4.28194944	      4.27848967	     -5.28462104	      0.01355749	      0.89273053	      0.37401066	    -18.48146459	     -4.02492338	     -5.32968095	    -34.38541499	      5.66833366	     18.63978980	     28.58283095	     19.82999042	      6.13010018	     -8.26281924	    -22.44191655	      1.18063025	    -11.83320198	      4.52263108	    -11.25193126	     -7.72794112	      9.56254468
      1.17966667	      4.32801322	      4.41834114	     -5.20638515	      0.01942222	      0.89337006	      0.37339418	    -17.79262647	     -4.37477608	     -5.53202109	    -36.24621436	      4.38443096	     18.53421447	     28.66617021	     19.54555069	      6.39771163	     -8.06211889	    -22.75974688	      1.52932377	    -11.87228334	      4.49938871	    -11.27940922	     -7.90637602	      9.33054783
